<svg width="72" height="72" viewBox="0 0 72 72" fill="none" xmlns="http://www.w3.org/2000/svg">
<g clip-path="url(#clip0_964_17605)">
<path d="M29 41.9168C36.9968 41.9168 43.5 35.725 43.5 28.1112C43.5 20.4975 36.9968 14.3057 29 14.3057C21.0032 14.3057 14.5 20.4975 14.5 28.1112C14.5 35.725 21.0032 41.9168 29 41.9168ZM29 21.2084C32.9984 21.2084 36.25 24.3043 36.25 28.1112C36.25 31.9181 32.9984 35.014 29 35.014C25.0016 35.014 21.75 31.9181 21.75 28.1112C21.75 24.3043 25.0016 21.2084 29 21.2084Z" fill="white"/>
<path d="M26.9338 69.8633C27.5367 70.2864 28.2591 70.5139 29 70.5139C29.7409 70.5139 30.4633 70.2864 31.0662 69.8633C32.1492 69.1107 57.603 51.0504 57.4997 28.5058C57.4997 13.0641 44.714 0.5 29 0.5C13.286 0.5 0.500314 13.0641 0.500314 28.4883C0.397002 51.0504 25.8508 69.1107 26.9338 69.8633ZM29 7.50144C40.7882 7.50144 50.3748 16.9219 50.3748 28.5233C50.4496 44.0595 34.7427 58.0099 29 62.5853C23.2609 58.0064 7.55042 44.0525 7.62524 28.5058C7.62524 16.9219 17.2118 7.50144 29 7.50144Z" fill="white"/>
</g>
<defs>
<clipPath id="clip0_964_17605">
<rect width="72" height="71" fill="white" transform="translate(0 0.5)"/>
</clipPath>
</defs>
</svg>
